# xmcd
#
# Track frame offsets:
#	150
#	15691
#	28150
#	47940
#	67668
#	82327
#	96541
#	109084
#	122773
#	135226
#	153153
#	170963
#	185270
#	202108
#	217384
#	232296
#
# Disc length: 3317 seconds
#
# Revision: 1
# Processed by: cddbd v1.5.2PL0 Copyright (c) Steve Scherf et al.
# Submitted via: audiograbber 1.83.01
#
DISCID=f20cf310
DTITLE=Justin Moore - Kinda Don't Care (Deluxe Version)
DYEAR=2016
DGENRE=Country
TTITLE0=Robbin' Trains
TTITLE1=Put Me In A Box
TTITLE2=Kinda Don't Care
TTITLE3=Hell On A Highway
TTITLE4=Goodbye Back
TTITLE5=You Look Like I Need A Drink
TTITLE6=Somebody Else Will
TTITLE7=Between You And Me
TTITLE8=Got It Good
TTITLE9=Rebel Kids
TTITLE10=More Middle Fingers
TTITLE11=Life In The Livin'
TTITLE12=Middle Class Money
TTITLE13=Pick-Up Lines
TTITLE14=Spendin' The Night
TTITLE15=When I Get Home
EXTD=
EXTT0=
EXTT1=
EXTT2=
EXTT3=
EXTT4=
EXTT5=
EXTT6=
EXTT7=
EXTT8=
EXTT9=
EXTT10=
EXTT11=
EXTT12=
EXTT13=
EXTT14=
EXTT15=
PLAYORDER=
